<svg xmlns="http://www.w3.org/2000/svg" xmlns:xlink="http://www.w3.org/1999/xlink" width="500" zoomAndPan="magnify" viewBox="0 0 375 374.999991" height="500" preserveAspectRatio="xMidYMid meet" version="1.0"><defs><clipPath id="4de7cb9232"><path d="M 50 28.753906 L 325 28.753906 L 325 265 L 50 265 Z M 50 28.753906 " clip-rule="nonzero"/></clipPath><clipPath id="3a0eaa7a9a"><path d="M 157 47 L 219 47 L 219 191.90625 L 157 191.90625 Z M 157 47 " clip-rule="nonzero"/></clipPath></defs><path fill="#8e85e6" d="M 54.75 224.175781 L 56.261719 251.707031 C 56.359375 253.582031 57.0625 255.34375 58.25 256.789062 C 66.546875 266.828125 103.738281 301.84375 187.554688 301.84375 C 271.371094 301.84375 308.113281 267.277344 316.71875 256.976562 C 318.015625 255.421875 318.761719 253.492188 318.882812 251.460938 L 320.382812 224.195312 C 330.359375 218.722656 340.660156 212.542969 340.660156 212.542969 C 356.859375 203.773438 374.933594 216.367188 374.964844 234.84375 C 375.019531 264.730469 351.648438 295.445312 320.125 314.800781 C 284.578125 336.628906 231.519531 345.683594 187.578125 345.683594 C 143.636719 345.683594 90.578125 336.628906 55.03125 314.800781 C 23.507812 295.445312 0.136719 264.742188 0.191406 234.84375 C 0.222656 216.367188 18.296875 203.773438 34.496094 212.542969 C 34.496094 212.542969 44.777344 218.707031 54.75 224.175781 Z M 54.75 224.175781 " fill-opacity="1" fill-rule="nonzero"/><g clip-path="url(#4de7cb9232)"><path fill="#8e85e6" d="M 187.566406 28.808594 C 256.097656 28.808594 274.679688 30.40625 302.542969 33.605469 L 302.535156 33.605469 C 315.378906 35.085938 325.675781 44.636719 324.71875 57.574219 L 314.453125 197.292969 C 311.242188 198.222656 307.738281 199.398438 303.8125 200.714844 C 283.222656 207.617188 250.949219 218.441406 187.566406 218.441406 C 124.183594 218.441406 91.910156 207.617188 71.320312 200.714844 C 67.390625 199.394531 63.882812 198.21875 60.667969 197.289062 L 50.40625 57.574219 C 49.460938 44.636719 59.722656 34.851562 72.589844 33.605469 C 100.113281 30.9375 128.769531 28.808594 187.566406 28.808594 Z M 65.585938 264.238281 L 65.625 264.730469 L 66.332031 264.894531 C 66.078125 264.671875 65.832031 264.453125 65.585938 264.238281 Z M 308.863281 264.878906 L 309.5 264.730469 L 309.53125 264.285156 C 309.3125 264.480469 309.089844 264.675781 308.863281 264.878906 Z M 308.863281 264.878906 " fill-opacity="1" fill-rule="nonzero"/></g><path fill="#ffffff" d="M 136.230469 171.492188 C 133.15625 171.492188 131.105469 170.46875 129.054688 168.417969 L 88.042969 127.40625 C 83.941406 123.304688 83.941406 117.152344 88.042969 113.050781 L 129.054688 72.039062 C 133.15625 67.9375 139.308594 67.9375 143.410156 72.039062 C 147.507812 76.140625 147.507812 82.292969 143.410156 86.394531 L 109.574219 120.226562 L 143.410156 154.0625 C 147.507812 158.164062 147.507812 164.316406 143.410156 168.417969 C 141.359375 170.46875 139.308594 171.492188 136.230469 171.492188 Z M 136.230469 171.492188 " fill-opacity="1" fill-rule="nonzero"/><path fill="#ffffff" d="M 238.761719 171.492188 C 235.6875 171.492188 233.636719 170.46875 231.585938 168.417969 C 227.484375 164.316406 227.484375 158.164062 231.585938 154.0625 L 265.421875 120.226562 L 231.585938 86.394531 C 227.484375 82.292969 227.484375 76.140625 231.585938 72.039062 C 235.6875 67.9375 241.839844 67.9375 245.9375 72.039062 L 286.953125 113.050781 C 291.050781 117.152344 291.050781 123.304688 286.953125 127.40625 L 245.9375 168.417969 C 243.886719 170.46875 241.839844 171.492188 238.761719 171.492188 Z M 238.761719 171.492188 " fill-opacity="1" fill-rule="nonzero"/><g clip-path="url(#3a0eaa7a9a)"><path fill="#ffffff" d="M 166.992188 192 C 165.964844 192 164.941406 192 163.914062 190.972656 C 158.789062 188.925781 155.710938 183.796875 157.761719 177.644531 L 198.773438 54.609375 C 200.824219 49.480469 205.953125 46.40625 212.105469 48.457031 C 217.230469 50.507812 220.304688 55.632812 218.253906 61.785156 L 177.242188 184.824219 C 175.191406 188.925781 171.089844 192 166.992188 192 Z M 166.992188 192 " fill-opacity="1" fill-rule="nonzero"/></g></svg>